<svg xmlns="http://www.w3.org/2000/svg" width="160" height="37.16" viewBox="0 0 160 37.16">
  <g id="logotipo-neuralmed" transform="translate(-887.966 -190.256)">
    <path id="Caminho_7070" data-name="Caminho 7070" d="M904.057,190.256l-16.091,9.29v18.58l16.091,9.29,16.09-9.29v-18.58Zm-.383,17.916-6.7-3.87,6.7-3.87Zm.766-7.74,6.7,3.869-6.7,3.87Zm-1.15,8.4-6.7,3.87v-7.74Zm.384.664v7.74l-6.7-3.87Zm.766,0,6.7,3.871-6.7,3.87Zm.384-.664,6.7-3.871v7.741Zm0-9.069,6.7-3.87v7.74Zm-8.237,3.871V195.9l6.7,3.87Zm-.767,9.068-6.7-3.87,6.7-3.87Zm7.471,5.2-6.7,3.871v-7.741Zm8.237-3.87v7.74l-6.7-3.87Zm.766-9.069,6.7,3.871-6.7,3.87Zm7.087,3.206-6.7-3.871,6.7-3.87Zm-7.087-4.535V195.9l6.7,3.87ZM904.44,199.1v-7.74l6.7,3.87Zm-.766,0-6.7-3.87,6.7-3.87Zm-7.854,4.534-6.7-3.87,6.7-3.87Zm-.384.665-6.7,3.87v-7.741Zm-6.7,5.2,6.7,3.87-6.7,3.87Zm7.087,4.534v7.741l-6.7-3.87Zm7.854,4.536v7.739l-6.7-3.869Zm.766,0,6.7,3.87-6.7,3.87Zm7.854-4.534,6.7,3.87-6.7,3.87Zm.385-.664,6.7-3.87v7.739Z" fill="#29c8ff"/>
    <g id="Grupo_323" data-name="Grupo 323">
      <path id="Caminho_7071" data-name="Caminho 7071" d="M939.11,216.959l-8.577-17.439h-2.551v18.631h1.528V200.763l8.539,17.388h2.589V199.52H939.11Z" fill="#fff"/>
      <path id="Caminho_7072" data-name="Caminho 7072" d="M953.51,205.444a6.319,6.319,0,0,0-3.411-.9,6.721,6.721,0,0,0-3.448.884,6.38,6.38,0,0,0-2.388,2.444,7.9,7.9,0,0,0-.006,7.2,6.333,6.333,0,0,0,2.375,2.444,6.7,6.7,0,0,0,3.455.885,7.763,7.763,0,0,0,2.633-.411,6.02,6.02,0,0,0,1.92-1.079,5.225,5.225,0,0,0,1.2-1.447,3.706,3.706,0,0,0,.474-1.522H954.76a2.578,2.578,0,0,1-.347.991,3.624,3.624,0,0,1-.859.992,4.311,4.311,0,0,1-1.415.751,6.326,6.326,0,0,1-2,.285,5.331,5.331,0,0,1-2.741-.688,4.728,4.728,0,0,1-1.825-1.933,5.846,5.846,0,0,1-.618-2.242h11.538c.008-.076.014-.2.019-.366s.006-.308.006-.417a7.472,7.472,0,0,0-.783-3.443A6.044,6.044,0,0,0,953.51,205.444Zm-7.933,3.151a4.876,4.876,0,0,1,1.832-1.932,5.2,5.2,0,0,1,2.716-.7,4.631,4.631,0,0,1,2.57.682,4.482,4.482,0,0,1,1.611,1.807,5.368,5.368,0,0,1,.546,2.248H944.96A5.65,5.65,0,0,1,945.577,208.6Z" fill="#fff"/>
      <path id="Caminho_7073" data-name="Caminho 7073" d="M968.566,212.353a4.907,4.907,0,0,1-2.021,3.9,3.659,3.659,0,0,1-2.2.682,3.35,3.35,0,0,1-2.1-.593,3.154,3.154,0,0,1-1.087-1.548,6.416,6.416,0,0,1-.316-2.027v-8.033H959.27v8.374a7.868,7.868,0,0,0,.208,1.731,5.16,5.16,0,0,0,.739,1.724,3.964,3.964,0,0,0,1.472,1.307,5,5,0,0,0,2.38.506,5.131,5.131,0,0,0,4.011-1.813,6.329,6.329,0,0,0,.486-.682v2.267h1.567V204.737h-1.567Z" fill="#fff"/>
      <path id="Caminho_7074" data-name="Caminho 7074" d="M978.343,204.547a4.519,4.519,0,0,0-1.914.373,3.956,3.956,0,0,0-1.333.979,5,5,0,0,0-.643.95v-2.112h-1.567v13.414h1.567v-7.806a5.678,5.678,0,0,1,.189-1.421,4.623,4.623,0,0,1,.619-1.395,3.3,3.3,0,0,1,1.149-1.068,4.259,4.259,0,0,1,2.906-.272,2.531,2.531,0,0,1,.517.228l.43-1.516a3.307,3.307,0,0,0-.619-.215A4.965,4.965,0,0,0,978.343,204.547Z" fill="#fff"/>
      <path id="Caminho_7075" data-name="Caminho 7075" d="M994.27,217.279a4.415,4.415,0,0,1-.113-.682c-.026-.26-.038-.534-.038-.821v-6.984a3.6,3.6,0,0,0-.752-2.319,4.688,4.688,0,0,0-2.027-1.433,7.9,7.9,0,0,0-2.867-.493,8.031,8.031,0,0,0-3.1.55,4.587,4.587,0,0,0-2.059,1.591,4.225,4.225,0,0,0-.733,2.495h1.542a2.749,2.749,0,0,1,1.143-2.4,5.453,5.453,0,0,1,3.189-.808,5.358,5.358,0,0,1,3.019.719,2.306,2.306,0,0,1,1.061,2.021v.178c0,.4-.373.7-1.118.877a31.094,31.094,0,0,1-3.682.537,10.791,10.791,0,0,0-2.886.644,4.277,4.277,0,0,0-1.876,1.333,3.382,3.382,0,0,0-.657,2.128,3.658,3.658,0,0,0,.625,2.154,3.9,3.9,0,0,0,1.775,1.358,7.123,7.123,0,0,0,2.691.467,8.468,8.468,0,0,0,2.387-.315,5.953,5.953,0,0,0,1.844-.878,4.07,4.07,0,0,0,.933-.966c.006.151.015.29.027.416a3.337,3.337,0,0,0,.139.708,5.267,5.267,0,0,0,.227.524,1.325,1.325,0,0,0,.165.271h1.579a1.555,1.555,0,0,1-.2-.291A2.818,2.818,0,0,1,994.27,217.279Zm-2.387-2.026a4.179,4.179,0,0,1-1.762,1.288,6.513,6.513,0,0,1-2.469.448,4.779,4.779,0,0,1-2.8-.682,2.278,2.278,0,0,1-.948-1.971,2.038,2.038,0,0,1,1.08-1.932,8.449,8.449,0,0,1,3.164-.8q1.479-.138,2.741-.36a8.449,8.449,0,0,0,1.655-.439v2.4A3.213,3.213,0,0,1,991.883,215.253Z" fill="#fff"/>
      <rect id="Retângulo_55" data-name="Retângulo 55" width="1.541" height="18.631" transform="translate(997.466 199.52)" fill="#fff"/>
    </g>
    <g id="Grupo_324" data-name="Grupo 324">
      <path id="Caminho_7076" data-name="Caminho 7076" d="M1009.516,216.865l-5.078-17.345h-2.678v18.631h1.49v-17.2l5.141,17.2h2.273l5.128-17.186v17.186h1.49V199.52h-2.678Z" fill="#00c1fa"/>
      <path id="Caminho_7077" data-name="Caminho 7077" d="M1030.155,205.444a6.314,6.314,0,0,0-3.41-.9,6.719,6.719,0,0,0-3.448.884,6.38,6.38,0,0,0-2.388,2.444,7.9,7.9,0,0,0-.006,7.2,6.326,6.326,0,0,0,2.375,2.444,6.7,6.7,0,0,0,3.455.885,7.763,7.763,0,0,0,2.633-.411,6.02,6.02,0,0,0,1.92-1.079,5.225,5.225,0,0,0,1.2-1.447,3.705,3.705,0,0,0,.474-1.522h-1.554a2.6,2.6,0,0,1-.347.991,3.624,3.624,0,0,1-.859.992,4.321,4.321,0,0,1-1.415.751,6.327,6.327,0,0,1-2,.285,5.331,5.331,0,0,1-2.741-.688,4.728,4.728,0,0,1-1.825-1.933,5.846,5.846,0,0,1-.618-2.242h11.538q.012-.114.018-.366c.005-.169.007-.308.007-.417a7.472,7.472,0,0,0-.783-3.443A6.039,6.039,0,0,0,1030.155,205.444Zm-7.932,3.151a4.876,4.876,0,0,1,1.832-1.932,5.2,5.2,0,0,1,2.715-.7,4.632,4.632,0,0,1,2.571.682,4.472,4.472,0,0,1,1.61,1.807,5.37,5.37,0,0,1,.547,2.248h-9.892A5.632,5.632,0,0,1,1022.223,208.6Z" fill="#00c1fa"/>
      <path id="Caminho_7078" data-name="Caminho 7078" d="M1046.4,198.408v8.364a5.71,5.71,0,0,0-1.762-1.5,5.842,5.842,0,0,0-2.861-.727,5.605,5.605,0,0,0-2.956.8,5.686,5.686,0,0,0-2.116,2.343,8.16,8.16,0,0,0-.79,3.752,8.418,8.418,0,0,0,.777,3.789,5.57,5.57,0,0,0,2.11,2.356,5.922,5.922,0,0,0,5.873.045,5.778,5.778,0,0,0,1.725-1.528v2.045h1.566V198.408Zm-.607,16.384a4.5,4.5,0,0,1-1.61,1.546,4.353,4.353,0,0,1-2.2.576,4.134,4.134,0,0,1-3.2-1.383,7.283,7.283,0,0,1,0-8.18,4.145,4.145,0,0,1,3.2-1.376,4.35,4.35,0,0,1,2.179.568,4.647,4.647,0,0,1,1.623,1.516,3.758,3.758,0,0,1,.619,2.1v2.463A4.031,4.031,0,0,1,1045.793,214.792Z" fill="#00c1fa"/>
    </g>
  </g>
</svg>
