<svg viewBox="0 0 87 87" fill="none" xmlns="http://www.w3.org/2000/svg">
  <path d="M86.2303 38.6909C86.4938 41.0323 84.5584 43 82.1249 43C79.7236 43 77.7516 41.0332 77.3932 38.5697C76.5002 32.4304 73.9504 26.6156 69.9755 21.7722C64.9486 15.6469 57.9534 11.4542 50.1818 9.90829C42.4102 8.36242 34.343 9.55907 27.3547 13.2944C20.3665 17.0296 14.8896 23.0725 11.8573 30.3932C8.82492 37.7139 8.42475 45.8595 10.7249 53.4422C13.0251 61.0249 17.8833 67.5754 24.4718 71.9777C31.0603 76.38 38.9713 78.3616 46.8571 77.5849C53.0926 76.9707 59.0073 74.662 63.9799 70.9523C65.9752 69.4638 68.7604 69.4675 70.4584 71.1655C72.1791 72.8862 72.1562 75.6461 70.3143 77.1154C63.8517 82.2706 56.0094 85.4759 47.7147 86.2929C37.8144 87.268 27.8822 84.7801 19.6105 79.2531C11.3388 73.7262 5.23941 65.5021 2.35158 55.9822C-0.536256 46.4623 -0.033849 36.2356 3.77319 27.0446C7.58023 17.8536 14.4564 10.267 23.2299 5.57745C32.0035 0.887868 42.1318 -0.614509 51.8889 1.3263C61.646 3.26711 70.4283 8.53102 76.7394 16.2211C82.027 22.664 85.3058 30.4759 86.2303 38.6909Z" fill="#00cdff" stroke="#00cdff"/>
</svg>
